# xmcd
#
# Track frame offsets: 
#        150
#        16591
#        30883
#        44888
#        61395
#        80870
#        94140
#        111365
#        128069
#        146290
#        160359
#        176533
#
# Disc length: 2613 seconds
#
# Revision: 0
# Processed by: cddbd v1.5.2PL0 Copyright (c) Steve Scherf et al.
# Submitted via: ExactAudioCopyFreeDBPlugin 1.0
#
DISCID=9b0a330c
DTITLE=Craig Duncan - Bluegrass Sinatra
DYEAR=2019
DGENRE=Bluegrass
TTITLE0=The Lady is a Tramp
TTITLE1=I get a Kick Out of You
TTITLE2=Witchcraft
TTITLE3=All of Me
TTITLE4=The Way You Look Tonight
TTITLE5=You Make Me Feel so Young
TTITLE6=Strangers in the Night
TTITLE7=Come Fly with Me
TTITLE8=I've Got You Under my Skin
TTITLE9=I Can't Believe that You're in Love with Me
TTITLE10=Fly Me to the Moon
TTITLE11=New York, New York
EXTD=
EXTT0=
EXTT1=
EXTT2=
EXTT3=
EXTT4=
EXTT5=
EXTT6=
EXTT7=
EXTT8=
EXTT9=
EXTT10=
EXTT11=
PLAYORDER=
